<svg xmlns='http://www.w3.org/2000/svg' style='font-size:initial;' viewBox="0 0 1544.54 1402.48" data-pikchr-date="20250319161943">
<path d="M68.7777,344.509L327.978,344.509A14.4 14.4 0 0 0 342.378 330.109L342.378,186.109A14.4 14.4 0 0 0 327.978 171.709L68.7777,171.709A14.4 14.4 0 0 0 54.3777 186.109L54.3777,330.109A14.4 14.4 0 0 0 68.7777 344.509Z"  style="fill:rgb(0,209,95);stroke-width:2.16;stroke:rgb(255,255,255);" />
<text x="198.378" y="221.821" text-anchor="middle" fill="rgb(255,255,255)" font-size="180%" dominant-baseline="central">vSphere VM</text>
<text x="198.378" y="258.109" text-anchor="middle" fill="rgb(255,255,255)" font-size="180%" dominant-baseline="central">500TB</text>
<text x="198.378" y="294.397" text-anchor="middle" fill="rgb(255,255,255)" font-size="180%" dominant-baseline="central">5%</text>
<path d="M68.7777,589.309L327.978,589.309A14.4 14.4 0 0 0 342.378 574.909L342.378,430.909A14.4 14.4 0 0 0 327.978 416.509L68.7777,416.509A14.4 14.4 0 0 0 54.3777 430.909L54.3777,574.909A14.4 14.4 0 0 0 68.7777 589.309Z"  style="fill:rgb(0,209,95);stroke-width:2.16;stroke:rgb(255,255,255);" />
<text x="198.378" y="466.621" text-anchor="middle" fill="rgb(255,255,255)" font-size="180%" dominant-baseline="central">Veeam Agent Windows</text>
<text x="198.378" y="502.909" text-anchor="middle" fill="rgb(255,255,255)" font-size="180%" dominant-baseline="central">100TB</text>
<text x="198.378" y="539.197" text-anchor="middle" fill="rgb(255,255,255)" font-size="180%" dominant-baseline="central">5%</text>
<path d="M68.7777,834.109L327.978,834.109A14.4 14.4 0 0 0 342.378 819.709L342.378,675.709A14.4 14.4 0 0 0 327.978 661.309L68.7777,661.309A14.4 14.4 0 0 0 54.3777 675.709L54.3777,819.709A14.4 14.4 0 0 0 68.7777 834.109Z"  style="fill:rgb(0,209,95);stroke-width:2.16;stroke:rgb(255,255,255);" />
<text x="198.378" y="711.421" text-anchor="middle" fill="rgb(255,255,255)" font-size="180%" dominant-baseline="central">Veeam Agent Linux</text>
<text x="198.378" y="747.709" text-anchor="middle" fill="rgb(255,255,255)" font-size="180%" dominant-baseline="central">100TB</text>
<text x="198.378" y="783.997" text-anchor="middle" fill="rgb(255,255,255)" font-size="180%" dominant-baseline="central">5%</text>
<path d="M68.7777,1078.91L327.978,1078.91A14.4 14.4 0 0 0 342.378 1064.51L342.378,920.509A14.4 14.4 0 0 0 327.978 906.109L68.7777,906.109A14.4 14.4 0 0 0 54.3777 920.509L54.3777,1064.51A14.4 14.4 0 0 0 68.7777 1078.91Z"  style="fill:rgb(0,209,95);stroke-width:2.16;stroke:rgb(255,255,255);" />
<text x="198.378" y="956.221" text-anchor="middle" fill="rgb(255,255,255)" font-size="180%" dominant-baseline="central">Oracle RMAN</text>
<text x="198.378" y="992.509" text-anchor="middle" fill="rgb(255,255,255)" font-size="180%" dominant-baseline="central">50TB</text>
<text x="198.378" y="1028.8" text-anchor="middle" fill="rgb(255,255,255)" font-size="180%" dominant-baseline="central">10%</text>
<path d="M68.7777,1323.71L327.978,1323.71A14.4 14.4 0 0 0 342.378 1309.31L342.378,1165.31A14.4 14.4 0 0 0 327.978 1150.91L68.7777,1150.91A14.4 14.4 0 0 0 54.3777 1165.31L54.3777,1309.31A14.4 14.4 0 0 0 68.7777 1323.71Z"  style="fill:rgb(0,209,95);stroke-width:2.16;stroke:rgb(255,255,255);" />
<text x="198.378" y="1219.16" text-anchor="middle" fill="rgb(255,255,255)" font-size="180%" dominant-baseline="central">NAS</text>
<text x="198.378" y="1255.45" text-anchor="middle" fill="rgb(255,255,255)" font-size="180%" dominant-baseline="central">1PB</text>
<path d="M644.778,344.509L903.978,344.509A14.4 14.4 0 0 0 918.378 330.109L918.378,186.109A14.4 14.4 0 0 0 903.978 171.709L644.778,171.709A14.4 14.4 0 0 0 630.378 186.109L630.378,330.109A14.4 14.4 0 0 0 644.778 344.509Z"  style="fill:rgb(0,209,95);stroke-width:2.16;stroke:rgb(255,255,255);" />
<text x="774.378" y="239.965" text-anchor="middle" fill="rgb(255,255,255)" font-size="180%" dominant-baseline="central">Hardened Repo</text>
<text x="774.378" y="276.253" text-anchor="middle" fill="rgb(255,255,255)" font-size="180%" dominant-baseline="central">350TB</text>
<path d="M644.778,1078.91L903.978,1078.91A14.4 14.4 0 0 0 918.378 1064.51L918.378,920.509A14.4 14.4 0 0 0 903.978 906.109L644.778,906.109A14.4 14.4 0 0 0 630.378 920.509L630.378,1064.51A14.4 14.4 0 0 0 644.778 1078.91Z"  style="fill:rgb(0,209,95);stroke-width:2.16;stroke:rgb(255,255,255);" />
<text x="774.378" y="974.365" text-anchor="middle" fill="rgb(255,255,255)" font-size="180%" dominant-baseline="central">Repo DB</text>
<text x="774.378" y="1010.65" text-anchor="middle" fill="rgb(255,255,255)" font-size="180%" dominant-baseline="central">350TB</text>
<path d="M644.778,1323.71L903.978,1323.71A14.4 14.4 0 0 0 918.378 1309.31L918.378,1165.31A14.4 14.4 0 0 0 903.978 1150.91L644.778,1150.91A14.4 14.4 0 0 0 630.378 1165.31L630.378,1309.31A14.4 14.4 0 0 0 644.778 1323.71Z"  style="fill:rgb(0,209,95);stroke-width:2.16;stroke:rgb(255,255,255);" />
<text x="774.378" y="1219.16" text-anchor="middle" fill="rgb(255,255,255)" font-size="180%" dominant-baseline="central">Hardened Repo NAS</text>
<text x="774.378" y="1255.45" text-anchor="middle" fill="rgb(255,255,255)" font-size="180%" dominant-baseline="central">10PB</text>
<path d="M1220.78,344.509L1479.98,344.509A14.4 14.4 0 0 0 1494.38 330.109L1494.38,186.109A14.4 14.4 0 0 0 1479.98 171.709L1220.78,171.709A14.4 14.4 0 0 0 1206.38 186.109L1206.38,330.109A14.4 14.4 0 0 0 1220.78 344.509Z"  style="fill:rgb(0,209,95);stroke-width:2.16;stroke:rgb(255,255,255);" />
<text x="1350.38" y="239.965" text-anchor="middle" fill="rgb(255,255,255)" font-size="180%" dominant-baseline="central">Vault</text>
<text x="1350.38" y="276.253" text-anchor="middle" fill="rgb(255,255,255)" font-size="180%" dominant-baseline="central">350TB</text>
<circle cx="339.6" cy="197.526" r="2.16" style="fill:rgb(80,88,97);stroke-width:2.16;stroke:rgb(80,88,97);" />
<polygon points="634.595,197.526 623.075,201.846 623.075,193.206" style="fill:rgb(80,88,97)"/>
<path d="M339.6,197.526 L 404.4,197.526 Q 418.8,197.526 418.8,197.526 L 418.8,197.526 Q 418.8,197.526 433.2,197.526 L 614.435,197.526 L 628.835,197.526"  style="fill:none;stroke-width:2.16;stroke:rgb(80,88,97);" />
<text x="350.4" y="170.31" text-anchor="start" fill="rgb(142,113,244)" font-size="180%" dominant-baseline="central">GOLD</text>
<circle cx="339.6" cy="463.926" r="2.16" style="fill:rgb(80,88,97);stroke-width:2.16;stroke:rgb(80,88,97);" />
<polygon points="634.595,219.126 623.075,223.446 623.075,214.806" style="fill:rgb(80,88,97)"/>
<path d="M339.6,463.926 L 426,463.926 Q 440.4,463.926 440.4,449.526 L 440.4,233.526 Q 440.4,219.126 454.8,219.126 L 614.435,219.126 L 628.835,219.126"  style="fill:none;stroke-width:2.16;stroke:rgb(80,88,97);" />
<text x="350.4" y="436.71" text-anchor="start" fill="rgb(142,113,244)" font-size="180%" dominant-baseline="central">GOLD</text>
<circle cx="339.6" cy="730.326" r="2.16" style="fill:rgb(80,88,97);stroke-width:2.16;stroke:rgb(80,88,97);" />
<polygon points="634.595,240.726 623.075,245.046 623.075,236.406" style="fill:rgb(80,88,97)"/>
<path d="M339.6,730.326 L 447.6,730.326 Q 462,730.326 462,715.926 L 462,255.126 Q 462,240.726 476.4,240.726 L 614.435,240.726 L 628.835,240.726"  style="fill:none;stroke-width:2.16;stroke:rgb(80,88,97);" />
<text x="350.4" y="703.11" text-anchor="start" fill="rgb(142,113,244)" font-size="180%" dominant-baseline="central">SILVER</text>
<circle cx="339.6" cy="931.926" r="2.16" style="fill:rgb(80,88,97);stroke-width:2.16;stroke:rgb(80,88,97);" />
<polygon points="634.595,931.926 623.075,936.246 623.075,927.606" style="fill:rgb(80,88,97)"/>
<path d="M339.6,931.926 L 404.4,931.926 Q 418.8,931.926 418.8,931.926 L 418.8,931.926 Q 418.8,931.926 433.2,931.926 L 614.435,931.926 L 628.835,931.926"  style="fill:none;stroke-width:2.16;stroke:rgb(80,88,97);" />
<text x="350.4" y="904.71" text-anchor="start" fill="rgb(142,113,244)" font-size="180%" dominant-baseline="central">DB</text>
<circle cx="339.6" cy="1176.73" r="2.16" style="fill:rgb(80,88,97);stroke-width:2.16;stroke:rgb(80,88,97);" />
<polygon points="634.595,1176.73 623.075,1181.05 623.075,1172.41" style="fill:rgb(80,88,97)"/>
<path d="M339.6,1176.73 L 404.4,1176.73 Q 418.8,1176.73 418.8,1176.73 L 418.8,1176.73 Q 418.8,1176.73 433.2,1176.73 L 614.435,1176.73 L 628.835,1176.73"  style="fill:none;stroke-width:2.16;stroke:rgb(80,88,97);" />
<text x="350.4" y="1149.51" text-anchor="start" fill="rgb(142,113,244)" font-size="180%" dominant-baseline="central">NAS</text>
<circle cx="915.6" cy="197.526" r="2.16" style="fill:rgb(80,88,97);stroke-width:2.16;stroke:rgb(80,88,97);" />
<polygon points="1210.6,197.526 1199.08,201.846 1199.08,193.206" style="fill:rgb(80,88,97)"/>
<path d="M915.6,197.526 L 980.4,197.526 Q 994.8,197.526 994.8,197.526 Q 994.8,197.526 1009.2,197.526 L 1190.44,197.526 L 1204.84,197.526"  style="fill:none;stroke-width:2.16;stroke:rgb(80,88,97);" />
<text x="926.4" y="170.31" text-anchor="start" fill="rgb(142,113,244)" font-size="180%" dominant-baseline="central">Capacity Tier Copy</text>
<path d="M20.7777,1400.32L951.978,1400.32A14.4 14.4 0 0 0 966.378 1385.92L966.378,138.109A14.4 14.4 0 0 0 951.978 123.709L20.7777,123.709A14.4 14.4 0 0 0 6.37766 138.109L6.37766,1385.92A14.4 14.4 0 0 0 20.7777 1400.32Z"  style="fill:none;stroke-width:2.88;stroke:rgb(80,88,97);" />
<path d="M345.258,126.589L627.498,126.589A2.88 2.88 0 0 0 630.378 123.709A2.88 2.88 0 0 0 627.498 120.829L345.258,120.829A2.88 2.88 0 0 0 342.378 123.709A2.88 2.88 0 0 0 345.258 126.589Z"  style="fill:rgb(255,255,255);stroke-width:2.16;stroke:rgb(255,255,255);" />
<text x="486.378" y="123.709" text-anchor="middle" fill="rgb(80,88,97)" font-size="281.25%" dominant-baseline="central">Oslo</text>
<path d="M1172.78,1400.32L1527.98,1400.32A14.4 14.4 0 0 0 1542.38 1385.92L1542.38,138.109A14.4 14.4 0 0 0 1527.98 123.709L1172.78,123.709A14.4 14.4 0 0 0 1158.38 138.109L1158.38,1385.92A14.4 14.4 0 0 0 1172.78 1400.32Z"  style="fill:none;stroke-width:2.88;stroke:rgb(80,88,97);" />
<path d="M1209.26,126.589L1491.5,126.589A2.88 2.88 0 0 0 1494.38 123.709A2.88 2.88 0 0 0 1491.5 120.829L1209.26,120.829A2.88 2.88 0 0 0 1206.38 123.709A2.88 2.88 0 0 0 1209.26 126.589Z"  style="fill:rgb(255,255,255);stroke-width:2.16;stroke:rgb(255,255,255);" />
<text x="1350.38" y="123.709" text-anchor="middle" fill="rgb(80,88,97)" font-size="281.25%" dominant-baseline="central">Vault</text>
<path d="M16.56,147.312L271.221,147.312A14.4 14.4 0 0 0 285.621 132.912L285.621,16.56A14.4 14.4 0 0 0 271.221 2.16L16.56,2.16A14.4 14.4 0 0 0 2.16 16.56L2.16,132.912A14.4 14.4 0 0 0 16.56 147.312Z"  style="fill:none;stroke-width:0;stroke:rgb(80,88,97);" />
<text x="7.344" y="33.912" text-anchor="start" fill="rgb(80,88,97)" font-size="225%" dominant-baseline="central">Design for x</text>
<text x="7.344" y="74.736" text-anchor="start" fill="rgb(80,88,97)" font-size="180%" dominant-baseline="central">Date: 2025/07/11</text>
<text x="7.344" y="111.024" text-anchor="start" fill="rgb(80,88,97)" font-size="180%" dominant-baseline="central"></text>
</svg>