<?xml version="1.0" encoding="UTF-8" standalone="no"?>
<svg
   style="font-size:initial;"
   viewBox="0 0 1518.72 1167.99"
   data-pikchr-date="20250319161943"
   version="1.1"
   id="svg58"
   sodipodi:docname="vbm365-os-complete.svg"
   inkscape:version="1.4.2 (ebf0e940, 2025-05-08)"
   inkscape:export-filename="vbm365-os-complete.png"
   inkscape:export-xdpi="96"
   inkscape:export-ydpi="96"
   xmlns:inkscape="http://www.inkscape.org/namespaces/inkscape"
   xmlns:sodipodi="http://sodipodi.sourceforge.net/DTD/sodipodi-0.dtd"
   xmlns="http://www.w3.org/2000/svg"
   xmlns:svg="http://www.w3.org/2000/svg">
  <style
     id="style58">
text { 
    font-family:&quot;ES Build&quot;;
}
</style>
  <defs
     id="defs58" />
  <sodipodi:namedview
     id="namedview58"
     pagecolor="#ffffff"
     bordercolor="#000000"
     borderopacity="0.25"
     inkscape:showpageshadow="2"
     inkscape:pageopacity="0.0"
     inkscape:pagecheckerboard="0"
     inkscape:deskcolor="#d1d1d1"
     showgrid="false"
     inkscape:zoom="0.39111884"
     inkscape:cx="759.35999"
     inkscape:cy="584.2214"
     inkscape:window-width="1440"
     inkscape:window-height="810"
     inkscape:window-x="48"
     inkscape:window-y="25"
     inkscape:window-maximized="0"
     inkscape:current-layer="svg58" />
  <path
     d="M177.36,297.36L465.36,297.36L465.36,225.36L177.36,225.36Z"
     style="fill:none;stroke-width:2.16;stroke:rgb(0,209,95);"
     id="path1" />
  <text
     x="321.36"
     y="261.36"
     text-anchor="middle"
     fill="rgb(0,209,95)"
     font-size="160%"
     dominant-baseline="central"
     id="text1"
     style="">*.veeam.com</text>
  <path
     d="M177.36,441.36L465.36,441.36L465.36,369.36L177.36,369.36Z"
     style="fill:none;stroke-width:2.16;stroke:rgb(142,113,244);"
     id="path2" />
  <text
     x="321.36"
     y="389.232"
     text-anchor="middle"
     fill="rgb(142,113,244)"
     font-size="160%"
     dominant-baseline="central"
     id="text2"
     style="">Microsoft Exchange Online</text>
  <text
     x="321.36"
     y="421.488"
     text-anchor="middle"
     fill="rgb(142,113,244)"
     font-size="160%"
     dominant-baseline="central"
     id="text3"
     style="">Microsoft SharePoint Online</text>
  <path
     d="M177.36,585.36L465.36,585.36L465.36,513.36L177.36,513.36Z"
     style="fill:none;stroke-width:2.16;stroke:rgb(142,113,244);"
     id="path3" />
  <text
     x="321.36"
     y="533.232"
     text-anchor="middle"
     fill="rgb(142,113,244)"
     font-size="160%"
     dominant-baseline="central"
     id="text4"
     style="">On-premises Microsoft</text>
  <text
     x="321.36"
     y="565.488"
     text-anchor="middle"
     fill="rgb(142,113,244)"
     font-size="160%"
     dominant-baseline="central"
     id="text5"
     style="">SharePoint server</text>
  <path
     d="M177.36,729.36L465.36,729.36L465.36,657.36L177.36,657.36Z"
     style="fill:none;stroke-width:2.16;stroke:rgb(142,113,244);"
     id="path5" />
  <text
     x="321.36"
     y="677.232"
     text-anchor="middle"
     fill="rgb(142,113,244)"
     font-size="160%"
     dominant-baseline="central"
     id="text6"
     style="">On-premises Microsoft</text>
  <text
     x="321.36"
     y="709.488"
     text-anchor="middle"
     fill="rgb(142,113,244)"
     font-size="160%"
     dominant-baseline="central"
     id="text7"
     style="">Exchange server</text>
  <path
     d="M681.36,315.36L969.36,315.36L969.36,207.36L681.36,207.36Z"
     style="fill:none;stroke-width:2.16;stroke:rgb(0,209,95);"
     id="path7" />
  <text
     x="825.36"
     y="245.232"
     text-anchor="middle"
     fill="rgb(0,209,95)"
     font-size="160%"
     dominant-baseline="central"
     id="text8"
     style="">Veeam Backup for</text>
  <text
     x="825.36"
     y="277.488"
     text-anchor="middle"
     fill="rgb(0,209,95)"
     font-size="160%"
     dominant-baseline="central"
     id="text9"
     style="">Microsoft 365 server</text>
  <path
     d="M767.76,459.36L882.96,459.36A14.4 14.4 0 0 0 897.36 444.96L897.36,401.76A14.4 14.4 0 0 0 882.96 387.36L767.76,387.36A14.4 14.4 0 0 0 753.36 401.76L753.36,444.96A14.4 14.4 0 0 0 767.76 459.36Z"
     style="fill:none;stroke-width:2.16;stroke:rgb(0,209,95);"
     id="path9" />
  <text
     x="825.36"
     y="423.36"
     text-anchor="middle"
     fill="rgb(0,209,95)"
     font-size="160%"
     dominant-baseline="central"
     id="text10"
     style="">Console</text>
  <path
     d="M893.142,465.428L757.578,465.428"
     style="fill:none;stroke-width:4.32;stroke:rgb(0,209,95);"
     id="path10" />
  <path
     d="M1185.36,459.36L1281.36,459.36L1281.36,387.36L1185.36,387.36Z"
     style="fill:none;stroke-width:2.16;stroke:rgb(142,113,244);"
     id="path11" />
  <path
     d="M1185.36,387.36L1233.36,405.36L1281.36,387.36"
     style="fill:none;stroke-width:2.16;stroke-linejoin:round;stroke:rgb(142,113,244);"
     id="path12" />
  <text
     x="1233.36"
     y="429.552"
     text-anchor="middle"
     fill="rgb(142,113,244)"
     font-size="160%"
     dominant-baseline="central"
     id="text12"
     style="">SMTP</text>
  <path
     d="M753.36,542.16L753.36,592.56A72 10.8 0 0 0 897.36 592.56L897.36,542.16A72 10.8 0 0 0 753.36 542.16A72 10.8 0 0 0 897.36 542.16"
     style="fill:none;stroke-width:2.16;stroke:rgb(0,209,95);"
     id="path13" />
  <text
     x="825.36"
     y="575.46"
     text-anchor="middle"
     fill="rgb(0,209,95)"
     font-size="160%"
     dominant-baseline="central"
     id="text13"
     style="">Postgres</text>
  <path
     d="M753.36,747.36L897.36,747.36L897.36,675.36L753.36,675.36Z"
     style="fill:none;stroke-width:2.16;stroke:rgb(0,209,95);"
     id="path14" />
  <path
     d="M753.36,675.36L825.36,693.36L897.36,675.36"
     style="fill:none;stroke-width:2.16;stroke-linejoin:round;stroke:rgb(0,209,95);"
     id="path15" />
  <text
     x="825.36"
     y="717.552"
     text-anchor="middle"
     fill="rgb(0,209,95)"
     font-size="160%"
     dominant-baseline="central"
     id="text15"
     style="">NATS</text>
  <path
     d="M681.36,992.16L969.36,992.16L969.36,819.36L681.36,819.36Z"
     style="fill:none;stroke-width:2.16;stroke:rgb(0,209,95);"
     id="path16" />
  <text
     x="825.36"
     y="843.552"
     text-anchor="middle"
     fill="rgb(0,209,95)"
     font-size="160%"
     dominant-baseline="central"
     id="text16"
     style="">Proxy</text>
  <path
     d="M744.36,885.96L744.36,972.36A81 10.8 0 0 0 906.36 972.36L906.36,885.96A81 10.8 0 0 0 744.36 885.96A81 10.8 0 0 0 906.36 885.96"
     style="fill:none;stroke-width:2.16;stroke:rgb(0,209,95);"
     id="path17" />
  <text
     x="825.36"
     y="921.132"
     text-anchor="middle"
     fill="rgb(0,209,95)"
     font-size="160%"
     dominant-baseline="central"
     id="text17"
     style="">Local Repo</text>
  <text
     x="825.36"
     y="953.388"
     text-anchor="middle"
     fill="rgb(0,209,95)"
     font-size="160%"
     dominant-baseline="central"
     id="text18"
     style="">or Cache</text>
  <path
     d="M854.16,135.36L1084.56,135.36L1084.56,63.36L854.16,63.36Z"
     style="fill:none;stroke-width:2.16;stroke:rgb(87,224,255);"
     id="path18" />
  <text
     x="969.36"
     y="99.36"
     text-anchor="middle"
     fill="rgb(87,224,255)"
     font-size="160%"
     dominant-baseline="central"
     id="text19"
     style="">Restore Portal</text>
  <path
     d="M566.16,135.36L796.56,135.36L796.56,63.36L566.16,63.36Z"
     style="fill:none;stroke-width:2.16;stroke:rgb(87,224,255);"
     id="path19" />
  <text
     x="681.36"
     y="99.36"
     text-anchor="middle"
     fill="rgb(87,224,255)"
     font-size="160%"
     dominant-baseline="central"
     id="text20"
     style="">REST Integration</text>
  <path
     d="M1185.36,279.36L1473.36,279.36L1473.36,207.36L1185.36,207.36Z"
     style="fill:none;stroke-width:2.16;stroke:rgb(254,138,37);"
     id="path20" />
  <text
     x="1329.36"
     y="243.36"
     text-anchor="middle"
     fill="rgb(254,138,37)"
     font-size="160%"
     dominant-baseline="central"
     id="text21"
     style="">Object Storage</text>
  <path
     d="M1041.36,1100.16L1329.36,1100.16L1329.36,1028.16L1041.36,1028.16Z"
     style="fill:none;stroke-width:2.16;stroke:rgb(0,209,95);"
     id="path21" />
  <text
     x="1185.36"
     y="1064.16"
     text-anchor="middle"
     fill="rgb(0,209,95)"
     font-size="160%"
     dominant-baseline="central"
     id="text22"
     style="">Proxy (Migrate Data)</text>
  <polygon
     points="465.36,261.36 476.88,257.04 476.88,265.68"
     style="fill:rgb(80,88,97)"
     id="polygon22" />
  <path
     d="M681.36,212.503 L 532.903,212.503 Q 518.503,212.503 518.503,226.903 L 518.503,246.96 Q 518.503,261.36 504.103,261.36 L 485.52,261.36 L 471.12,261.36"
     style="fill:none;stroke-width:2.16;stroke:rgb(80,88,97);"
     id="path22" />
  <text
     x="486.617"
     y="285.552"
     text-anchor="middle"
     fill="rgb(80,88,97)"
     font-size="160%"
     dominant-baseline="central"
     id="text23"
     style="">443</text>
  <text
     x="486.617"
     y="317.808"
     text-anchor="middle"
     fill="rgb(80,88,97)"
     font-size="160%"
     dominant-baseline="central"
     id="text24"
     style="">80</text>
  <polygon
     points="465.36,405.36 476.88,401.04 476.88,409.68"
     style="fill:rgb(80,88,97)"
     id="polygon24" />
  <path
     d="M681.36,222.789 L 543.189,222.789 Q 528.789,222.789 528.789,237.189 L 528.789,390.96 Q 528.789,405.36 514.389,405.36 L 485.52,405.36 L 471.12,405.36"
     style="fill:none;stroke-width:2.16;stroke:rgb(80,88,97);"
     id="path24" />
  <text
     x="490.731"
     y="429.552"
     text-anchor="middle"
     fill="rgb(80,88,97)"
     font-size="160%"
     dominant-baseline="central"
     id="text25"
     style="">443</text>
  <polygon
     points="465.36,549.36 476.88,545.04 476.88,553.68"
     style="fill:rgb(80,88,97)"
     id="polygon25" />
  <path
     d="M681.36,233.074 L 553.474,233.074 Q 539.074,233.074 539.074,247.474 L 539.074,534.96 Q 539.074,549.36 524.674,549.36 L 485.52,549.36 L 471.12,549.36"
     style="fill:none;stroke-width:2.16;stroke:rgb(80,88,97);"
     id="path25" />
  <text
     x="494.846"
     y="573.552"
     text-anchor="middle"
     fill="rgb(80,88,97)"
     font-size="160%"
     dominant-baseline="central"
     id="text26"
     style="">5986</text>
  <text
     x="494.846"
     y="605.808"
     text-anchor="middle"
     fill="rgb(80,88,97)"
     font-size="160%"
     dominant-baseline="central"
     id="text27"
     style="">5985</text>
  <polygon
     points="465.36,693.36 476.88,689.04 476.88,697.68"
     style="fill:rgb(80,88,97)"
     id="polygon27" />
  <path
     d="M681.36,243.36 L 563.76,243.36 Q 549.36,243.36 549.36,257.76 L 549.36,678.96 Q 549.36,693.36 534.96,693.36 L 485.52,693.36 L 471.12,693.36"
     style="fill:none;stroke-width:2.16;stroke:rgb(80,88,97);"
     id="path27" />
  <text
     x="498.96"
     y="717.552"
     text-anchor="middle"
     fill="rgb(80,88,97)"
     font-size="160%"
     dominant-baseline="central"
     id="text28"
     style="">80</text>
  <text
     x="498.96"
     y="749.808"
     text-anchor="middle"
     fill="rgb(80,88,97)"
     font-size="160%"
     dominant-baseline="central"
     id="text29"
     style="">443</text>
  <polygon
     points="681.36,905.76 669.84,910.08 669.84,901.44"
     style="fill:rgb(80,88,97)"
     id="polygon29" />
  <path
     d="M681.36,253.646 L 574.046,253.646 Q 559.646,253.646 559.646,268.046 L 559.646,891.36 Q 559.646,905.76 574.046,905.76 L 661.2,905.76 L 675.6,905.76"
     style="fill:none;stroke-width:2.16;stroke:rgb(80,88,97);"
     id="path29" />
  <text
     x="632.674"
     y="929.952"
     text-anchor="middle"
     fill="rgb(80,88,97)"
     font-size="160%"
     dominant-baseline="central"
     id="text30"
     style="">9193</text>
  <text
     x="632.674"
     y="962.208"
     text-anchor="middle"
     fill="rgb(80,88,97)"
     font-size="160%"
     dominant-baseline="central"
     id="text31"
     style="">445 Win</text>
  <text
     x="632.674"
     y="994.464"
     text-anchor="middle"
     fill="rgb(80,88,97)"
     font-size="160%"
     dominant-baseline="central"
     id="text32"
     style="">22 Lin</text>
  <polygon
     points="753.36,711.36 741.84,715.68 741.84,707.04"
     style="fill:rgb(80,88,97)"
     id="polygon32" />
  <path
     d="M681.36,263.931 L 584.331,263.931 Q 569.931,263.931 569.931,278.331 L 569.931,696.96 Q 569.931,711.36 584.331,711.36 L 733.2,711.36 L 747.6,711.36"
     style="fill:none;stroke-width:2.16;stroke:rgb(80,88,97);"
     id="path32" />
  <text
     x="679.989"
     y="735.552"
     text-anchor="middle"
     fill="rgb(80,88,97)"
     font-size="160%"
     dominant-baseline="central"
     id="text33"
     style="">4222</text>
  <polygon
     points="753.36,567.36 741.84,571.68 741.84,563.04"
     style="fill:rgb(80,88,97)"
     id="polygon33" />
  <path
     d="M681.36,274.217 L 594.617,274.217 Q 580.217,274.217 580.217,288.617 L 580.217,552.96 Q 580.217,567.36 594.617,567.36 L 733.2,567.36 L 747.6,567.36"
     style="fill:none;stroke-width:2.16;stroke:rgb(80,88,97);"
     id="path33" />
  <text
     x="684.103"
     y="591.552"
     text-anchor="middle"
     fill="rgb(80,88,97)"
     font-size="160%"
     dominant-baseline="central"
     id="text34"
     style="">5432</text>
  <polygon
     points="825.36,315.36 829.68,326.88 821.04,326.88"
     style="fill:rgb(80,88,97)"
     id="polygon34" />
  <path
     d="M825.36,387.36L825.36,321.12"
     style="fill:none;stroke-width:2.16;stroke:rgb(80,88,97);"
     id="path34" />
  <text
     x="868.122"
     y="339.552"
     text-anchor="middle"
     fill="rgb(80,88,97)"
     font-size="160%"
     dominant-baseline="central"
     id="text35"
     style="">9191</text>
  <polygon
     points="1185.36,217.646 1173.84,221.966 1173.84,213.326"
     style="fill:rgb(80,88,97)"
     id="polygon35" />
  <path
     d="M969.36,217.646L1179.6,217.646"
     style="fill:none;stroke-width:2.16;stroke:rgb(80,88,97);"
     id="path35" />
  <text
     x="1150.98"
     y="241.838"
     text-anchor="middle"
     fill="rgb(80,88,97)"
     font-size="160%"
     dominant-baseline="central"
     id="text36"
     style="">443</text>
  <polygon
     points="897.36,711.36 908.88,707.04 908.88,715.68"
     style="fill:rgb(80,88,97)"
     id="polygon36" />
  <path
     d="M969.36,824.503 L 1035.53,824.503 Q 1049.93,824.503 1049.93,810.103 L 1049.93,725.76 Q 1049.93,711.36 1035.53,711.36 L 917.52,711.36 L 903.12,711.36"
     style="fill:none;stroke-width:2.16;stroke:rgb(80,88,97);"
     id="path36" />
  <text
     x="958.389"
     y="735.552"
     text-anchor="middle"
     fill="rgb(80,88,97)"
     font-size="160%"
     dominant-baseline="central"
     id="text37"
     style="">4222</text>
  <polygon
     points="897.36,567.36 908.88,563.04 908.88,571.68"
     style="fill:rgb(80,88,97)"
     id="polygon37" />
  <path
     d="M969.36,834.789 L 1045.82,834.789 Q 1060.22,834.789 1060.22,820.389 L 1060.22,581.76 Q 1060.22,567.36 1045.82,567.36 L 917.52,567.36 L 903.12,567.36"
     style="fill:none;stroke-width:2.16;stroke:rgb(80,88,97);"
     id="path37" />
  <text
     x="962.503"
     y="591.552"
     text-anchor="middle"
     fill="rgb(80,88,97)"
     font-size="160%"
     dominant-baseline="central"
     id="text38"
     style="">5432</text>
  <polygon
     points="969.36,261.36 980.88,257.04 980.88,265.68"
     style="fill:rgb(80,88,97)"
     id="polygon38" />
  <path
     d="M969.36,845.074 L 1056.1,845.074 Q 1070.5,845.074 1070.5,830.674 L 1070.5,275.76 Q 1070.5,261.36 1056.1,261.36 L 989.52,261.36 L 975.12,261.36"
     style="fill:none;stroke-width:2.16;stroke:rgb(80,88,97);"
     id="path38" />
  <text
     x="1009.82"
     y="285.552"
     text-anchor="middle"
     fill="rgb(80,88,97)"
     font-size="160%"
     dominant-baseline="central"
     id="text39"
     style="">9191</text>
  <polygon
     points="1185.36,423.36 1173.84,427.68 1173.84,419.04"
     style="fill:rgb(80,88,97)"
     id="polygon39" />
  <path
     d="M969.36,855.36 L 1066.39,855.36 Q 1080.79,855.36 1080.79,840.96 L 1080.79,437.76 Q 1080.79,423.36 1095.19,423.36 L 1165.2,423.36 L 1179.6,423.36"
     style="fill:none;stroke-width:2.16;stroke:rgb(80,88,97);"
     id="path39" />
  <text
     x="1143.53"
     y="447.552"
     text-anchor="middle"
     fill="rgb(80,88,97)"
     font-size="160%"
     dominant-baseline="central"
     id="text40"
     style="">25</text>
  <text
     x="1143.53"
     y="479.808"
     text-anchor="middle"
     fill="rgb(80,88,97)"
     font-size="160%"
     dominant-baseline="central"
     id="text41"
     style="">or 465</text>
  <text
     x="1143.53"
     y="512.064"
     text-anchor="middle"
     fill="rgb(80,88,97)"
     font-size="160%"
     dominant-baseline="central"
     id="text42"
     style="">or 587</text>
  <polygon
     points="1185.36,423.36 1173.84,427.68 1173.84,419.04"
     style="fill:rgb(80,88,97)"
     id="polygon42" />
  <path
     d="M969.36,233.074 L 1066.39,233.074 Q 1080.79,233.074 1080.79,247.474 L 1080.79,408.96 Q 1080.79,423.36 1095.19,423.36 L 1165.2,423.36 L 1179.6,423.36"
     style="fill:none;stroke-width:2.16;stroke:rgb(80,88,97);"
     id="path42" />
  <polygon
     points="1329.36,279.36 1333.68,290.88 1325.04,290.88"
     style="fill:rgb(80,88,97)"
     id="polygon43" />
  <path
     d="M969.36,865.646 L 1314.96,865.646 Q 1329.36,865.646 1329.36,851.246 L 1329.36,299.52 L 1329.36,285.12"
     style="fill:none;stroke-width:2.16;stroke:rgb(80,88,97);"
     id="path43" />
  <text
     x="1363.74"
     y="303.552"
     text-anchor="middle"
     fill="rgb(80,88,97)"
     font-size="160%"
     dominant-baseline="central"
     id="text43"
     style="">443</text>
  <polygon
     points="1185.36,1028.16 1181.04,1016.64 1189.68,1016.64"
     style="fill:rgb(80,88,97)"
     id="polygon44" />
  <path
     d="M969.36,981.874 L 1170.96,981.874 Q 1185.36,981.874 1185.36,996.274 L 1185.36,1008 L 1185.36,1022.4"
     style="fill:none;stroke-width:2.16;stroke:rgb(80,88,97);"
     id="path44" />
  <text
     x="1228.12"
     y="1003.97"
     text-anchor="middle"
     fill="rgb(80,88,97)"
     font-size="160%"
     dominant-baseline="central"
     id="text44"
     style="">9193</text>
  <polygon
     points="177.36,693.36 165.84,697.68 165.84,689.04"
     style="fill:rgb(80,88,97)"
     id="polygon45" />
  <path
     d="M686.503,992.16 L 686.503,1030.9 Q 686.503,1045.3 672.103,1045.3 L 191.76,1045.3 Q 177.36,1045.3 162.96,1045.3 L 90.6171,1045.3 Q 76.2171,1045.3 76.2171,1030.9 L 76.2171,707.76 Q 76.2171,693.36 90.6171,693.36 L 157.2,693.36 L 171.6,693.36"
     style="fill:none;stroke-width:2.16;stroke:rgb(80,88,97);"
     id="path45" />
  <text
     x="136.903"
     y="717.552"
     text-anchor="middle"
     fill="rgb(80,88,97)"
     font-size="160%"
     dominant-baseline="central"
     id="text45"
     style="">80</text>
  <text
     x="136.903"
     y="749.808"
     text-anchor="middle"
     fill="rgb(80,88,97)"
     font-size="160%"
     dominant-baseline="central"
     id="text46"
     style="">443</text>
  <polygon
     points="177.36,549.36 165.84,553.68 165.84,545.04"
     style="fill:rgb(80,88,97)"
     id="polygon46" />
  <path
     d="M696.789,992.16 L 696.789,1041.19 Q 696.789,1055.59 682.389,1055.59 L 191.76,1055.59 Q 177.36,1055.59 162.96,1055.59 L 80.3314,1055.59 Q 65.9314,1055.59 65.9314,1041.19 L 65.9314,563.76 Q 65.9314,549.36 80.3314,549.36 L 157.2,549.36 L 171.6,549.36"
     style="fill:none;stroke-width:2.16;stroke:rgb(80,88,97);"
     id="path46" />
  <text
     x="132.789"
     y="573.552"
     text-anchor="middle"
     fill="rgb(80,88,97)"
     font-size="160%"
     dominant-baseline="central"
     id="text47"
     style="">5986</text>
  <text
     x="132.789"
     y="605.808"
     text-anchor="middle"
     fill="rgb(80,88,97)"
     font-size="160%"
     dominant-baseline="central"
     id="text48"
     style="">5985</text>
  <polygon
     points="177.36,405.36 165.84,409.68 165.84,401.04"
     style="fill:rgb(80,88,97)"
     id="polygon48" />
  <path
     d="M707.074,992.16 L 707.074,1051.47 Q 707.074,1065.87 692.674,1065.87 L 191.76,1065.87 Q 177.36,1065.87 162.96,1065.87 L 70.0457,1065.87 Q 55.6457,1065.87 55.6457,1051.47 L 55.6457,419.76 Q 55.6457,405.36 70.0457,405.36 L 157.2,405.36 L 171.6,405.36"
     style="fill:none;stroke-width:2.16;stroke:rgb(80,88,97);"
     id="path48" />
  <text
     x="128.674"
     y="429.552"
     text-anchor="middle"
     fill="rgb(80,88,97)"
     font-size="160%"
     dominant-baseline="central"
     id="text49"
     style="">443</text>
  <polygon
     points="177.36,261.36 165.84,265.68 165.84,257.04"
     style="fill:rgb(80,88,97)"
     id="polygon49" />
  <path
     d="M717.36,992.16 L 717.36,1061.76 Q 717.36,1076.16 702.96,1076.16 L 191.76,1076.16 Q 177.36,1076.16 162.96,1076.16 L 59.76,1076.16 Q 45.36,1076.16 45.36,1061.76 L 45.36,275.76 Q 45.36,261.36 59.76,261.36 L 157.2,261.36 L 171.6,261.36"
     style="fill:none;stroke-width:2.16;stroke:rgb(80,88,97);"
     id="path49" />
  <text
     x="124.56"
     y="285.552"
     text-anchor="middle"
     fill="rgb(80,88,97)"
     font-size="160%"
     dominant-baseline="central"
     id="text50"
     style="">443</text>
  <text
     x="124.56"
     y="317.808"
     text-anchor="middle"
     fill="rgb(80,88,97)"
     font-size="160%"
     dominant-baseline="central"
     id="text51"
     style="">80</text>
  <polygon
     points="835.646,207.36 831.326,195.84 839.966,195.84"
     style="fill:rgb(80,88,97)"
     id="polygon51" />
  <path
     d="M969.36,135.36 L 969.36,142.56 Q 969.36,149.76 954.96,149.76 L 850.046,149.76 Q 835.646,149.76 835.646,164.16 L 835.646,187.2 L 835.646,201.6"
     style="fill:none;stroke-width:2.16;stroke:rgb(80,88,97);"
     id="path51" />
  <text
     x="878.408"
     y="183.168"
     text-anchor="middle"
     fill="rgb(80,88,97)"
     font-size="160%"
     dominant-baseline="central"
     id="text52"
     style="">4443</text>
  <polygon
     points="815.074,207.36 810.754,195.84 819.394,195.84"
     style="fill:rgb(80,88,97)"
     id="polygon52" />
  <path
     d="M681.36,135.36 L 681.36,142.56 Q 681.36,149.76 695.76,149.76 L 800.674,149.76 Q 815.074,149.76 815.074,164.16 L 815.074,187.2 L 815.074,201.6"
     style="fill:none;stroke-width:2.16;stroke:rgb(80,88,97);"
     id="path52" />
  <text
     x="772.312"
     y="183.168"
     text-anchor="middle"
     fill="rgb(80,88,97)"
     font-size="160%"
     dominant-baseline="central"
     id="text53"
     style="">9194</text>
  <polygon
     points="796.56,99.36 808.08,95.04 808.08,103.68"
     style="fill:rgb(80,88,97)"
     id="polygon53" />
  <path
     d="M854.16,99.36L802.32,99.36"
     style="fill:none;stroke-width:2.16;stroke:rgb(80,88,97);stroke-dasharray:7.2,7.2;"
     id="path53" />
  <text
     x="825.36"
     y="99.36"
     text-anchor="middle"
     fill="rgb(80,88,97)"
     font-size="160%"
     dominant-baseline="central"
     id="text54"
     style="" />
  <text
     x="825.36"
     y="123.552"
     text-anchor="middle"
     fill="rgb(80,88,97)"
     font-size="160%"
     dominant-baseline="central"
     id="text55"
     style="">uses</text>
  <polygon
     points="321.36,369.36 317.04,357.84 325.68,357.84"
     style="fill:rgb(80,88,97)"
     id="polygon55" />
  <path
     d="M566.16,99.36 L 95.76,99.36 Q 81.36,99.36 81.36,113.76 L 81.36,241.817 Q 81.36,256.217 86.5029,256.217 Q 91.6457,256.217 91.6457,261.36 Q 91.6457,266.503 86.5029,266.503 Q 81.36,266.503 81.36,280.903 L 81.36,322.96 Q 81.36,337.36 95.76,337.36 L 306.96,337.36 Q 321.36,337.36 321.36,350.48 L 321.36,363.6"
     style="fill:none;stroke-width:2.16;stroke:rgb(80,88,97);"
     id="path55" />
  <text
     x="395.921"
     y="345.168"
     text-anchor="middle"
     fill="rgb(80,88,97)"
     font-size="160%"
     dominant-baseline="central"
     id="text56"
     style="">443 login</text>
  <text
     x="759.36"
     y="27.36"
     text-anchor="middle"
     font-weight="bold"
     fill="rgb(80,88,97)"
     font-size="250%"
     dominant-baseline="central"
     id="text57"
     style="">Veeam Backup for Office 365</text>
  <path
     d="M413.227,27.36 L 30.96,27.36 Q 2.16,27.36 2.16,56.16 L 2.16,1114.56 Q 2.16,1143.36 30.96,1143.36 L 1487.76,1143.36 Q 1516.56,1143.36 1516.56,1114.56 L 1516.56,56.16 Q 1516.56,27.36 1487.76,27.36 L 1134.29,27.36 Q 1105.49,27.36 1105.49,27.36 L 1105.49,27.36 L 1105.49,27.36"
     style="fill:none;stroke-width:4.32;stroke:rgb(173,172,175);"
     id="path57" />
  <text
     x="15.2033"
     y="1152.92"
     text-anchor="start"
     font-style="italic"
     fill="rgb(173,172,175)"
     font-size="128%"
     dominant-baseline="central"
     id="text58"
     style="">For a complete list of: https://helpcenter.veeam.com/docs/vbo365/guide/vbo_used_ports.html?ver=80</text>
</svg>
