<svg xmlns='http://www.w3.org/2000/svg' style='font-size:initial;' viewBox="0 0 1576.32 1126.96" data-pikchr-date="20250319161943">
<path d="M206.16,310.95L494.16,310.95L494.16,238.95L206.16,238.95Z"  style="fill:none;stroke-width:2.16;stroke:rgb(0,209,95);" />
<text x="350.16" y="274.95" text-anchor="middle" fill="rgb(0,209,95)" dominant-baseline="central">*.veeam.com</text>
<path d="M206.16,454.95L494.16,454.95L494.16,382.95L206.16,382.95Z"  style="fill:none;stroke-width:2.16;stroke:rgb(142,113,244);" />
<text x="350.16" y="408.87" text-anchor="middle" fill="rgb(142,113,244)" dominant-baseline="central">Microsoft Exchange Online</text>
<text x="350.16" y="429.03" text-anchor="middle" fill="rgb(142,113,244)" dominant-baseline="central">Microsoft SharePoint Online</text>
<path d="M206.16,598.95L494.16,598.95L494.16,526.95L206.16,526.95Z"  style="fill:none;stroke-width:2.16;stroke:rgb(142,113,244);" />
<text x="350.16" y="552.87" text-anchor="middle" fill="rgb(142,113,244)" dominant-baseline="central">On-premises Microsoft</text>
<text x="350.16" y="573.03" text-anchor="middle" fill="rgb(142,113,244)" dominant-baseline="central">SharePoint server</text>
<path d="M206.16,742.95L494.16,742.95L494.16,670.95L206.16,670.95Z"  style="fill:none;stroke-width:2.16;stroke:rgb(142,113,244);" />
<text x="350.16" y="696.87" text-anchor="middle" fill="rgb(142,113,244)" dominant-baseline="central">On-premises Microsoft</text>
<text x="350.16" y="717.03" text-anchor="middle" fill="rgb(142,113,244)" dominant-baseline="central">Exchange server</text>
<path d="M710.16,310.95L998.16,310.95L998.16,238.95L710.16,238.95Z"  style="fill:none;stroke-width:2.16;stroke:rgb(0,209,95);" />
<text x="854.16" y="264.87" text-anchor="middle" fill="rgb(0,209,95)" dominant-baseline="central">Veeam Backup for</text>
<text x="854.16" y="285.03" text-anchor="middle" fill="rgb(0,209,95)" dominant-baseline="central">Microsoft 365 server</text>
<path d="M818.16,454.95L890.16,454.95A36 36 0 0 0 926.16 418.95A36 36 0 0 0 890.16 382.95L818.16,382.95A36 36 0 0 0 782.16 418.95A36 36 0 0 0 818.16 454.95Z"  style="fill:none;stroke-width:2.16;stroke:rgb(0,209,95);" />
<text x="854.16" y="418.95" text-anchor="middle" fill="rgb(0,209,95)" dominant-baseline="central">Console</text>
<path d="M1214.16,454.95L1310.16,454.95L1310.16,382.95L1214.16,382.95Z"  style="fill:none;stroke-width:2.16;stroke:rgb(142,113,244);" />
<text x="1262.16" y="418.95" text-anchor="middle" fill="rgb(142,113,244)" dominant-baseline="central">SMTP</text>
<path d="M806.16,537.75L806.16,588.15A48 10.8 0 0 0 902.16 588.15L902.16,537.75A48 10.8 0 0 0 806.16 537.75A48 10.8 0 0 0 902.16 537.75"  style="fill:none;stroke-width:2.16;stroke:rgb(0,209,95);" />
<text x="854.16" y="571.05" text-anchor="middle" fill="rgb(0,209,95)" dominant-baseline="central">Postgres</text>
<path d="M806.16,778.95L902.16,778.95L902.16,692.55L880.56,670.95L806.16,670.95Z"  style="fill:none;stroke-width:2.16;stroke:rgb(0,209,95);" />
<path d="M880.56,670.95L880.56,692.55L902.16,692.55"  style="fill:none;stroke-width:2.16;stroke:rgb(0,209,95);" />
<text x="854.16" y="724.95" text-anchor="middle" fill="rgb(0,209,95)" dominant-baseline="central">NATS</text>
<path d="M710.16,922.95L998.16,922.95L998.16,850.95L710.16,850.95Z"  style="fill:none;stroke-width:2.16;stroke:rgb(0,209,95);" />
<text x="854.16" y="886.95" text-anchor="middle" fill="rgb(0,209,95)" dominant-baseline="central">Proxy</text>
<path d="M882.96,166.95L1113.36,166.95L1113.36,94.95L882.96,94.95Z"  style="fill:none;stroke-width:2.16;stroke:rgb(87,224,255);" />
<text x="998.16" y="130.95" text-anchor="middle" fill="rgb(87,224,255)" dominant-baseline="central">Restore Portal</text>
<path d="M594.96,166.95L825.36,166.95L825.36,94.95L594.96,94.95Z"  style="fill:none;stroke-width:2.16;stroke:rgb(87,224,255);" />
<text x="710.16" y="130.95" text-anchor="middle" fill="rgb(87,224,255)" dominant-baseline="central">REST Integration</text>
<path d="M1214.16,310.95L1502.16,310.95L1502.16,238.95L1214.16,238.95Z"  style="fill:none;stroke-width:2.16;stroke:rgb(254,138,37);" />
<text x="1358.16" y="274.95" text-anchor="middle" fill="rgb(254,138,37)" dominant-baseline="central">Object Storage</text>
<path d="M1070.16,1030.95L1358.16,1030.95L1358.16,958.95L1070.16,958.95Z"  style="fill:none;stroke-width:2.16;stroke:rgb(0,209,95);" />
<text x="1214.16" y="994.95" text-anchor="middle" fill="rgb(0,209,95)" dominant-baseline="central">Proxy (Migrate Data)</text>
<polygon points="494.16,274.95 505.68,270.63 505.68,279.27" style="fill:rgb(80,88,97)"/>
<path d="M710.16,244.093 L 561.703,244.093 Q 547.303,244.093 547.303,258.493 L 547.303,260.55 Q 547.303,274.95 532.903,274.95 L 514.32,274.95 L 499.92,274.95"  style="fill:none;stroke-width:2.16;stroke:rgb(80,88,97);" />
<text x="515.417" y="290.07" text-anchor="middle" fill="rgb(80,88,97)" dominant-baseline="central">443</text>
<text x="515.417" y="310.23" text-anchor="middle" fill="rgb(80,88,97)" dominant-baseline="central">80</text>
<polygon points="494.16,418.95 505.68,414.63 505.68,423.27" style="fill:rgb(80,88,97)"/>
<path d="M710.16,254.379 L 571.989,254.379 Q 557.589,254.379 557.589,268.779 L 557.589,404.55 Q 557.589,418.95 543.189,418.95 L 514.32,418.95 L 499.92,418.95"  style="fill:none;stroke-width:2.16;stroke:rgb(80,88,97);" />
<text x="519.531" y="434.07" text-anchor="middle" fill="rgb(80,88,97)" dominant-baseline="central">443</text>
<polygon points="494.16,562.95 505.68,558.63 505.68,567.27" style="fill:rgb(80,88,97)"/>
<path d="M710.16,264.664 L 582.274,264.664 Q 567.874,264.664 567.874,279.064 L 567.874,548.55 Q 567.874,562.95 553.474,562.95 L 514.32,562.95 L 499.92,562.95"  style="fill:none;stroke-width:2.16;stroke:rgb(80,88,97);" />
<text x="523.646" y="578.07" text-anchor="middle" fill="rgb(80,88,97)" dominant-baseline="central">5986</text>
<text x="523.646" y="598.23" text-anchor="middle" fill="rgb(80,88,97)" dominant-baseline="central">5985</text>
<polygon points="494.16,706.95 505.68,702.63 505.68,711.27" style="fill:rgb(80,88,97)"/>
<path d="M710.16,274.95 L 592.56,274.95 Q 578.16,274.95 578.16,289.35 L 578.16,692.55 Q 578.16,706.95 563.76,706.95 L 514.32,706.95 L 499.92,706.95"  style="fill:none;stroke-width:2.16;stroke:rgb(80,88,97);" />
<text x="527.76" y="722.07" text-anchor="middle" fill="rgb(80,88,97)" dominant-baseline="central">80</text>
<text x="527.76" y="742.23" text-anchor="middle" fill="rgb(80,88,97)" dominant-baseline="central">443</text>
<polygon points="710.16,886.95 698.64,891.27 698.64,882.63" style="fill:rgb(80,88,97)"/>
<path d="M710.16,285.236 L 602.846,285.236 Q 588.446,285.236 588.446,299.636 L 588.446,872.55 Q 588.446,886.95 602.846,886.95 L 690,886.95 L 704.4,886.95"  style="fill:none;stroke-width:2.16;stroke:rgb(80,88,97);" />
<text x="661.474" y="902.07" text-anchor="middle" fill="rgb(80,88,97)" dominant-baseline="central">9193</text>
<text x="661.474" y="922.23" text-anchor="middle" fill="rgb(80,88,97)" dominant-baseline="central">445 Win</text>
<text x="661.474" y="942.39" text-anchor="middle" fill="rgb(80,88,97)" dominant-baseline="central">22 Lin</text>
<polygon points="806.16,724.95 794.64,729.27 794.64,720.63" style="fill:rgb(80,88,97)"/>
<path d="M710.16,295.521 L 613.131,295.521 Q 598.731,295.521 598.731,309.921 L 598.731,710.55 Q 598.731,724.95 613.131,724.95 L 786,724.95 L 800.4,724.95"  style="fill:none;stroke-width:2.16;stroke:rgb(80,88,97);" />
<text x="723.189" y="740.07" text-anchor="middle" fill="rgb(80,88,97)" dominant-baseline="central">4222</text>
<polygon points="806.16,562.95 794.64,567.27 794.64,558.63" style="fill:rgb(80,88,97)"/>
<path d="M710.16,305.807 L 623.417,305.807 Q 609.017,305.807 609.017,320.207 L 609.017,548.55 Q 609.017,562.95 623.417,562.95 L 786,562.95 L 800.4,562.95"  style="fill:none;stroke-width:2.16;stroke:rgb(80,88,97);" />
<text x="727.303" y="578.07" text-anchor="middle" fill="rgb(80,88,97)" dominant-baseline="central">5432</text>
<polygon points="854.16,310.95 858.48,322.47 849.84,322.47" style="fill:rgb(80,88,97)"/>
<path d="M854.16,382.95L854.16,316.71"  style="fill:none;stroke-width:2.16;stroke:rgb(80,88,97);" />
<text x="880.886" y="326.07" text-anchor="middle" fill="rgb(80,88,97)" dominant-baseline="central">9191</text>
<polygon points="1214.16,249.236 1202.64,253.556 1202.64,244.916" style="fill:rgb(80,88,97)"/>
<path d="M998.16,249.236L1208.4,249.236"  style="fill:none;stroke-width:2.16;stroke:rgb(80,88,97);" />
<text x="1192.68" y="264.356" text-anchor="middle" fill="rgb(80,88,97)" dominant-baseline="central">443</text>
<polygon points="902.16,724.95 913.68,720.63 913.68,729.27" style="fill:rgb(80,88,97)"/>
<path d="M998.16,856.093 L 1064.33,856.093 Q 1078.73,856.093 1078.73,841.693 L 1078.73,739.35 Q 1078.73,724.95 1064.33,724.95 L 922.32,724.95 L 907.92,724.95"  style="fill:none;stroke-width:2.16;stroke:rgb(80,88,97);" />
<text x="972.789" y="740.07" text-anchor="middle" fill="rgb(80,88,97)" dominant-baseline="central">4222</text>
<polygon points="902.16,562.95 913.68,558.63 913.68,567.27" style="fill:rgb(80,88,97)"/>
<path d="M998.16,866.379 L 1074.62,866.379 Q 1089.02,866.379 1089.02,851.979 L 1089.02,577.35 Q 1089.02,562.95 1074.62,562.95 L 922.32,562.95 L 907.92,562.95"  style="fill:none;stroke-width:2.16;stroke:rgb(80,88,97);" />
<text x="976.903" y="578.07" text-anchor="middle" fill="rgb(80,88,97)" dominant-baseline="central">5432</text>
<polygon points="998.16,274.95 1009.68,270.63 1009.68,279.27" style="fill:rgb(80,88,97)"/>
<path d="M998.16,876.664 L 1084.9,876.664 Q 1099.3,876.664 1099.3,862.264 L 1099.3,289.35 Q 1099.3,274.95 1084.9,274.95 L 1018.32,274.95 L 1003.92,274.95"  style="fill:none;stroke-width:2.16;stroke:rgb(80,88,97);" />
<text x="1038.62" y="290.07" text-anchor="middle" fill="rgb(80,88,97)" dominant-baseline="central">9191</text>
<polygon points="1214.16,418.95 1202.64,423.27 1202.64,414.63" style="fill:rgb(80,88,97)"/>
<path d="M998.16,886.95 L 1095.19,886.95 Q 1109.59,886.95 1109.59,872.55 L 1109.59,433.35 Q 1109.59,418.95 1123.99,418.95 L 1194,418.95 L 1208.4,418.95"  style="fill:none;stroke-width:2.16;stroke:rgb(80,88,97);" />
<text x="1172.33" y="434.07" text-anchor="middle" fill="rgb(80,88,97)" dominant-baseline="central">25</text>
<text x="1172.33" y="454.23" text-anchor="middle" fill="rgb(80,88,97)" dominant-baseline="central">or 465</text>
<text x="1172.33" y="474.39" text-anchor="middle" fill="rgb(80,88,97)" dominant-baseline="central">or 587</text>
<polygon points="1214.16,418.95 1202.64,423.27 1202.64,414.63" style="fill:rgb(80,88,97)"/>
<path d="M998.16,264.664 L 1095.19,264.664 Q 1109.59,264.664 1109.59,279.064 L 1109.59,404.55 Q 1109.59,418.95 1123.99,418.95 L 1194,418.95 L 1208.4,418.95"  style="fill:none;stroke-width:2.16;stroke:rgb(80,88,97);" />
<polygon points="1358.16,310.95 1362.48,322.47 1353.84,322.47" style="fill:rgb(80,88,97)"/>
<path d="M998.16,897.236 L 1343.76,897.236 Q 1358.16,897.236 1358.16,882.836 L 1358.16,331.11 L 1358.16,316.71"  style="fill:none;stroke-width:2.16;stroke:rgb(80,88,97);" />
<text x="1379.64" y="326.07" text-anchor="middle" fill="rgb(80,88,97)" dominant-baseline="central">443</text>
<polygon points="1214.16,958.95 1209.84,947.43 1218.48,947.43" style="fill:rgb(80,88,97)"/>
<path d="M998.16,912.664 L 1199.76,912.664 Q 1214.16,912.664 1214.16,927.064 L 1214.16,938.79 L 1214.16,953.19"  style="fill:none;stroke-width:2.16;stroke:rgb(80,88,97);" />
<text x="1240.89" y="943.83" text-anchor="middle" fill="rgb(80,88,97)" dominant-baseline="central">9193</text>
<polygon points="206.16,706.95 194.64,711.27 194.64,702.63" style="fill:rgb(80,88,97)"/>
<path d="M715.303,922.95 L 715.303,961.693 Q 715.303,976.093 700.903,976.093 L 220.56,976.093 Q 206.16,976.093 191.76,976.093 L 119.417,976.093 Q 105.017,976.093 105.017,961.693 L 105.017,721.35 Q 105.017,706.95 119.417,706.95 L 186,706.95 L 200.4,706.95"  style="fill:none;stroke-width:2.16;stroke:rgb(80,88,97);" />
<text x="165.703" y="722.07" text-anchor="middle" fill="rgb(80,88,97)" dominant-baseline="central">80</text>
<text x="165.703" y="742.23" text-anchor="middle" fill="rgb(80,88,97)" dominant-baseline="central">443</text>
<polygon points="206.16,562.95 194.64,567.27 194.64,558.63" style="fill:rgb(80,88,97)"/>
<path d="M725.589,922.95 L 725.589,971.979 Q 725.589,986.379 711.189,986.379 L 220.56,986.379 Q 206.16,986.379 191.76,986.379 L 109.131,986.379 Q 94.7314,986.379 94.7314,971.979 L 94.7314,577.35 Q 94.7314,562.95 109.131,562.95 L 186,562.95 L 200.4,562.95"  style="fill:none;stroke-width:2.16;stroke:rgb(80,88,97);" />
<text x="161.589" y="578.07" text-anchor="middle" fill="rgb(80,88,97)" dominant-baseline="central">5986</text>
<text x="161.589" y="598.23" text-anchor="middle" fill="rgb(80,88,97)" dominant-baseline="central">5985</text>
<polygon points="206.16,418.95 194.64,423.27 194.64,414.63" style="fill:rgb(80,88,97)"/>
<path d="M735.874,922.95 L 735.874,982.264 Q 735.874,996.664 721.474,996.664 L 220.56,996.664 Q 206.16,996.664 191.76,996.664 L 98.8457,996.664 Q 84.4457,996.664 84.4457,982.264 L 84.4457,433.35 Q 84.4457,418.95 98.8457,418.95 L 186,418.95 L 200.4,418.95"  style="fill:none;stroke-width:2.16;stroke:rgb(80,88,97);" />
<text x="157.474" y="434.07" text-anchor="middle" fill="rgb(80,88,97)" dominant-baseline="central">443</text>
<polygon points="206.16,274.95 194.64,279.27 194.64,270.63" style="fill:rgb(80,88,97)"/>
<path d="M746.16,922.95 L 746.16,992.55 Q 746.16,1006.95 731.76,1006.95 L 220.56,1006.95 Q 206.16,1006.95 191.76,1006.95 L 88.56,1006.95 Q 74.16,1006.95 74.16,992.55 L 74.16,289.35 Q 74.16,274.95 88.56,274.95 L 186,274.95 L 200.4,274.95"  style="fill:none;stroke-width:2.16;stroke:rgb(80,88,97);" />
<text x="153.36" y="290.07" text-anchor="middle" fill="rgb(80,88,97)" dominant-baseline="central">443</text>
<text x="153.36" y="310.23" text-anchor="middle" fill="rgb(80,88,97)" dominant-baseline="central">80</text>
<polygon points="864.446,238.95 860.126,227.43 868.766,227.43" style="fill:rgb(80,88,97)"/>
<path d="M998.16,166.95 L 998.16,174.15 Q 998.16,181.35 983.76,181.35 L 878.846,181.35 Q 864.446,181.35 864.446,195.75 L 864.446,218.79 L 864.446,233.19"  style="fill:none;stroke-width:2.16;stroke:rgb(80,88,97);" />
<text x="891.172" y="223.83" text-anchor="middle" fill="rgb(80,88,97)" dominant-baseline="central">4443</text>
<polygon points="843.874,238.95 839.554,227.43 848.194,227.43" style="fill:rgb(80,88,97)"/>
<path d="M710.16,166.95 L 710.16,174.15 Q 710.16,181.35 724.56,181.35 L 829.474,181.35 Q 843.874,181.35 843.874,195.75 L 843.874,218.79 L 843.874,233.19"  style="fill:none;stroke-width:2.16;stroke:rgb(80,88,97);" />
<text x="817.148" y="223.83" text-anchor="middle" fill="rgb(80,88,97)" dominant-baseline="central">9194</text>
<polygon points="825.36,130.95 836.88,126.63 836.88,135.27" style="fill:rgb(80,88,97)"/>
<path d="M882.96,130.95L831.12,130.95"  style="fill:none;stroke-width:2.16;stroke:rgb(80,88,97);stroke-dasharray:7.2,7.2;" />
<text x="854.16" y="130.95" text-anchor="middle" fill="rgb(80,88,97)" dominant-baseline="central"></text>
<text x="854.16" y="146.07" text-anchor="middle" fill="rgb(80,88,97)" dominant-baseline="central">uses</text>
<polygon points="350.16,382.95 345.84,371.43 354.48,371.43" style="fill:rgb(80,88,97)"/>
<path d="M594.96,130.95 L 124.56,130.95 Q 110.16,130.95 110.16,145.35 L 110.16,255.407 Q 110.16,269.807 115.303,269.807 Q 120.446,269.807 120.446,274.95 Q 120.446,280.093 115.303,280.093 Q 110.16,280.093 110.16,294.493 L 110.16,320.55 Q 110.16,334.95 124.56,334.95 L 335.76,334.95 Q 350.16,334.95 350.16,349.35 L 350.16,362.79 L 350.16,377.19"  style="fill:none;stroke-width:2.16;stroke:rgb(80,88,97);" />
<text x="397.661" y="367.83" text-anchor="middle" fill="rgb(80,88,97)" dominant-baseline="central">443 login</text>
<path d="M16.56,1102.95L1559.76,1102.95A14.4 14.4 0 0 0 1574.16 1088.55L1574.16,37.35A14.4 14.4 0 0 0 1559.76 22.95L16.56,22.95A14.4 14.4 0 0 0 2.16 37.35L2.16,1088.55A14.4 14.4 0 0 0 16.56 1102.95Z"  style="fill:none;stroke-width:2.16;stroke:rgb(80,88,97);" />
<path d="M586.56,40.95L989.76,40.95L989.76,4.95L586.56,4.95Z"  style="fill:rgb(255,255,255);stroke-width:2.16;stroke:rgb(255,255,255);" />
<text x="788.16" y="22.95" text-anchor="middle" font-weight="bold" fill="rgb(80,88,97)" font-size="156.25%" dominant-baseline="central">Veeam Backup for Office 365</text>
<text x="9.25766" y="1116.73" text-anchor="start" font-style="italic" fill="rgb(80,88,97)" font-size="80%" dominant-baseline="central">For a complete list of: https://helpcenter.veeam.com/docs/vbo365/guide/vbo_used_ports.html?ver=80</text>
</svg>